<svg xmlns="http://www.w3.org/2000/svg" viewBox="0 0 515.65 107.04"><defs><style>.cls-1{fill:#004f8d;}.cls-2{fill:#ee7203;}</style></defs><g id="Capa_2" data-name="Capa 2"><g id="Capa_1-2" data-name="Capa 1"><path class="cls-1" d="M147.26,63.89H134.2V48.31l1.29-28.84L119.66,63.89h-8.83L95,19.47l1.29,28.84V63.89h-13V3.56h17l14.91,43.05,14.92-43h17.08Z"/><path class="cls-1" d="M190.71,45.54H162.36a11,11,0,0,0,3.48,6.65A10.37,10.37,0,0,0,173,54.65a14.52,14.52,0,0,0,6-1.22,12.29,12.29,0,0,0,4.7-3.67l6,6.92a18.15,18.15,0,0,1-6.9,5.72,23,23,0,0,1-10.63,2.32,23.61,23.61,0,0,1-11.95-2.9A19.91,19.91,0,0,1,152.4,54a22.57,22.57,0,0,1-2.72-11V41.39a27.22,27.22,0,0,1,2.53-12,19.26,19.26,0,0,1,7.29-8.23,20.9,20.9,0,0,1,11.28-3,20.55,20.55,0,0,1,10.81,2.69,17.18,17.18,0,0,1,6.8,7.65,27.2,27.2,0,0,1,2.32,11.66Zm-12.27-9.37a8.48,8.48,0,0,0-2-5.76c-1.28-1.41-3.2-2.11-5.74-2.11a6.91,6.91,0,0,0-5.57,2.36,12.69,12.69,0,0,0-2.63,6.5h15.95Z"/><path class="cls-1" d="M232.57,48.19a15.11,15.11,0,0,1-2.49,8.53,16.86,16.86,0,0,1-6.74,5.89,20.82,20.82,0,0,1-9.42,2.11,21.08,21.08,0,0,1-11.44-2.94,18.31,18.31,0,0,1-7-8.08A27.92,27.92,0,0,1,193.11,42V40.94a27.92,27.92,0,0,1,2.34-11.69,18.33,18.33,0,0,1,7-8.08,20.91,20.91,0,0,1,11.37-2.94,21.47,21.47,0,0,1,9.76,2.13,15.67,15.67,0,0,1,6.61,6.13,18.17,18.17,0,0,1,2.37,9.43H220.84a8.14,8.14,0,0,0-2-5.47,6.7,6.7,0,0,0-5.3-2.15q-4.56,0-6.26,3.41a20.86,20.86,0,0,0-1.7,9.23V42q0,5.93,1.68,9.29t6.36,3.35a7.5,7.5,0,0,0,5.18-1.74,6.13,6.13,0,0,0,2-4.72Z"/><path class="cls-1" d="M273.55,63.89H262.74a13,13,0,0,1-1.21-4,14.21,14.21,0,0,1-11.23,4.85A17,17,0,0,1,242.6,63a13.76,13.76,0,0,1-5.5-4.8,12.39,12.39,0,0,1-2-6.93q0-7.08,5.27-10.92t15.5-3.83H261V34a6.86,6.86,0,0,0-1.57-4.82,6.09,6.09,0,0,0-4.73-1.72,6.74,6.74,0,0,0-4.45,1.34,4.77,4.77,0,0,0-1.6,3.84H236.09a12.12,12.12,0,0,1,2.38-7.3,16,16,0,0,1,6.76-5.18,25.05,25.05,0,0,1,10.09-1.9,23.35,23.35,0,0,1,9.4,1.78,14.27,14.27,0,0,1,6.43,5.34,15.69,15.69,0,0,1,2.32,8.71V52.83Zm-15.62-9.84a7.72,7.72,0,0,0,3-2.88v-7.5h-4.76q-4.35,0-6.49,1.89a6.23,6.23,0,0,0-2.13,4.91,4.36,4.36,0,0,0,1.51,3.44,5.94,5.94,0,0,0,4,1.32A9.53,9.53,0,0,0,257.93,54.05Z"/><path class="cls-1" d="M316.85.24V63.89H305.58l-.62-4.8a13.76,13.76,0,0,1-11.35,5.63,15.36,15.36,0,0,1-9.39-2.92,18,18,0,0,1-6-8.06,31.35,31.35,0,0,1-2-11.73v-.87a32.48,32.48,0,0,1,2-12,17.58,17.58,0,0,1,6-8,15.7,15.7,0,0,1,9.47-2.86,13.62,13.62,0,0,1,10.65,4.84V.24Zm-12.51,49.9V32.81c-1.44-3-3.92-4.47-7.46-4.47a6.65,6.65,0,0,0-6.24,3.48,19,19,0,0,0-2,9.32V42a18.75,18.75,0,0,0,1.93,9.18,6.59,6.59,0,0,0,6.2,3.42A7.83,7.83,0,0,0,304.34,50.14Z"/><path class="cls-1" d="M359,19.05V63.89H347.25l-.33-4.68a14.13,14.13,0,0,1-5.18,4.08,16.28,16.28,0,0,1-7,1.43q-7,0-11-4.06c-2.64-2.71-4-6.9-4-12.6v-29h12.47v29.1A6.52,6.52,0,0,0,333.93,53a6.27,6.27,0,0,0,4.54,1.57q5.76,0,8-4V19.05Z"/><path class="cls-1" d="M363.11,32.23a12.1,12.1,0,0,1,2.18-7,15,15,0,0,1,6.27-5.1,22.56,22.56,0,0,1,9.58-1.9,25.46,25.46,0,0,1,10.07,1.84,15.16,15.16,0,0,1,6.63,5.14,12.79,12.79,0,0,1,2.32,7.52H387.64A5.51,5.51,0,0,0,386,28.52,7.06,7.06,0,0,0,381.1,27a6.88,6.88,0,0,0-4.38,1.29,4,4,0,0,0-1.63,3.31,3.62,3.62,0,0,0,1.84,3.15,18.41,18.41,0,0,0,6.28,2,43.19,43.19,0,0,1,9,2.59,14.63,14.63,0,0,1,5.87,4.42A11.35,11.35,0,0,1,400.24,51,11.51,11.51,0,0,1,397.9,58a15.42,15.42,0,0,1-6.67,4.91,26.25,26.25,0,0,1-10.05,1.78,23.19,23.19,0,0,1-10.47-2.21,16.9,16.9,0,0,1-6.71-5.7,13,13,0,0,1-2.3-7.25h11.81a5.75,5.75,0,0,0,2.32,4.78,9.52,9.52,0,0,0,5.64,1.56,8.36,8.36,0,0,0,4.91-1.23,3.82,3.82,0,0,0,1.72-3.29,3.24,3.24,0,0,0-.77-2.18,7.21,7.21,0,0,0-2.73-1.68A38.55,38.55,0,0,0,379,46Q363.11,42.56,363.11,32.23Z"/><path class="cls-1" d="M429.68,54.16v9.4a21.57,21.57,0,0,1-7.38,1.16q-13.17,0-13.17-13.42V28.17h-6.34V19.05h6.34V8h12.51v11.1h7.54v9.12h-7.54V49.85c0,1.76.35,3,1,3.62a5.07,5.07,0,0,0,3.52,1A18.33,18.33,0,0,0,429.68,54.16Z"/><path class="cls-1" d="M456.76,18.37a12.89,12.89,0,0,1,1.74.35l-.17,12.1a32.73,32.73,0,0,0-4.43-.33q-6.72,0-8.75,4.44v29H432.64V19.05h11.77l.37,5.43A12.42,12.42,0,0,1,449,19.84a10.43,10.43,0,0,1,5.73-1.61A14.78,14.78,0,0,1,456.76,18.37Z"/><path class="cls-1" d="M472.87,2.83a6.06,6.06,0,0,1,1.93,4.62,6.06,6.06,0,0,1-1.93,4.62,7.15,7.15,0,0,1-5.08,1.8,7.06,7.06,0,0,1-5-1.8,6,6,0,0,1-1.93-4.62,6,6,0,0,1,1.93-4.62,7.06,7.06,0,0,1,5-1.8A7.15,7.15,0,0,1,472.87,2.83Zm-11.3,61.06V19.05h12.56V63.89Z"/><path class="cls-1" d="M515.19,63.89H504.38a13,13,0,0,1-1.21-4,14.21,14.21,0,0,1-11.23,4.85A17,17,0,0,1,484.23,63a13.8,13.8,0,0,1-5.49-4.8,12.39,12.39,0,0,1-2-6.93q0-7.08,5.27-10.92t15.5-3.83h5.09V34A6.86,6.86,0,0,0,501,29.15a6.09,6.09,0,0,0-4.73-1.72,6.74,6.74,0,0,0-4.45,1.34,4.74,4.74,0,0,0-1.6,3.84H477.73a12.12,12.12,0,0,1,2.38-7.3,16,16,0,0,1,6.76-5.18A25,25,0,0,1,497,18.23a23.35,23.35,0,0,1,9.4,1.78,14.27,14.27,0,0,1,6.43,5.34,15.69,15.69,0,0,1,2.32,8.71V52.83Zm-15.62-9.84a7.72,7.72,0,0,0,3-2.88v-7.5h-4.76c-2.9,0-5.07.63-6.49,1.89a6.23,6.23,0,0,0-2.13,4.91,4.36,4.36,0,0,0,1.51,3.44,5.94,5.94,0,0,0,4,1.32A9.53,9.53,0,0,0,499.57,54.05Z"/><path class="cls-2" d="M60.89,10.44a.2.2,0,0,1,0,.08l-.73,1.38,5.21,7.69-6.9,6.91-7.69-5.22L49.36,22c-.44.23-.89.45-1.34.67l-.05,0c-.44.2-.89.39-1.35.58h0l-4.23,3.8-1.26,6.57h-6L32.51,36a33.84,33.84,0,0,0,17.08-2.51h-.14a16.54,16.54,0,1,1,0,30.43h.14a34,34,0,0,0-26.65,0h.11A16.55,16.55,0,0,1,5.11,60.65L0,65.25H72.5V2.3l-3.25.62Z"/><path class="cls-2" d="M46.62,23.29c.46-.19.91-.38,1.35-.58C47.53,22.91,47.08,23.1,46.62,23.29Z"/><polygon class="cls-2" points="42.39 27.09 41.13 33.66 42.39 27.09 42.39 27.09"/><polygon class="cls-2" points="69.25 2.92 72.5 2.3 69.25 2.92 69.25 2.92"/><path class="cls-2" d="M48,22.69c.45-.22.9-.44,1.34-.67C48.92,22.25,48.47,22.48,48,22.69Z"/><polygon class="cls-2" points="46.62 23.29 46.62 23.29 46.62 23.29 46.62 23.29"/><path class="cls-2" d="M60.89,10.44h0a.2.2,0,0,1,0,.08A.2.2,0,0,0,60.89,10.44Z"/><path class="cls-2" d="M48,22.69l-.05,0Z"/><path class="cls-1" d="M29.62,24.54l-1.5-.45a28.13,28.13,0,0,1-5-2.07l-1.38-.74L14.07,26.5,7.16,19.59l5.22-7.69-.74-1.38a27.79,27.79,0,0,1-2.06-5L9.12,4.05,0,2.3v63l5.11-4.6A16.55,16.55,0,0,1,23.05,33.48h-.11A33.59,33.59,0,0,0,32.51,36l2.58-2.33H31.36Z"/><path class="cls-1" d="M69.25,2.92,63.37,4.05l-.45,1.49q-.2.64-.42,1.26c-.14.39-.29.78-.44,1.16,0,0,0,0,0,.08a26.17,26.17,0,0,1-1.12,2.4h0Z"/><path class="cls-1" d="M62.5,6.8c-.14.39-.29.78-.44,1.16C62.21,7.58,62.36,7.19,62.5,6.8Z"/><polygon class="cls-1" points="63.37 4.05 69.25 2.92 69.25 2.92 63.37 4.05"/><path class="cls-1" d="M60.9,10.44A26.17,26.17,0,0,0,62,8,26.17,26.17,0,0,1,60.9,10.44Z"/><path class="cls-1" d="M36.25,15.34A17.94,17.94,0,0,0,54,0H18.51A17.94,17.94,0,0,0,36.25,15.34Z"/><path class="cls-1" d="M44.38,24.09l-1.5.45-.49,2.55,4.23-3.8h0c-.36.14-.73.29-1.1.42Z"/><polygon class="cls-1" points="42.39 27.09 42.39 27.09 42.88 24.54 42.39 27.09"/><path class="cls-1" d="M46.62,23.29l-1.1.42C45.89,23.58,46.26,23.43,46.62,23.29Z"/><polygon class="cls-1" points="60.89 10.44 60.9 10.44 60.89 10.44 60.89 10.44"/><polygon class="cls-1" points="46.62 23.29 46.62 23.29 46.62 23.29 46.62 23.29"/><path class="cls-1" d="M62.06,8S62,8,62,8,62,8,62.06,8Z"/><path class="cls-1" d="M62.92,5.54q-.2.64-.42,1.26Q62.72,6.19,62.92,5.54Z"/><path class="cls-1" d="M45.52,23.71l-1.14.38Z"/><path class="cls-2" d="M23.5,48.7A7,7,0,0,0,22.45,45L12.3,54.18A6.94,6.94,0,0,0,23.5,48.7Z"/><path class="cls-2" d="M56,41.75a6.95,6.95,0,1,0,6.94,7A6.95,6.95,0,0,0,56,41.75Z"/><path class="cls-1" d="M16.55,41.75A6.94,6.94,0,0,0,12.3,54.18L22.45,45A7,7,0,0,0,16.55,41.75Z"/><path class="cls-2" d="M352.68,107a13.1,13.1,0,0,1-9.58-3.61,12.81,12.81,0,0,1-3.7-9.61v-.7a16.1,16.1,0,0,1,1.56-7.2,11.48,11.48,0,0,1,4.41-4.9,12.44,12.44,0,0,1,6.51-1.72,11.09,11.09,0,0,1,8.64,3.47q3.17,3.45,3.16,9.81V95.5h-17a6.67,6.67,0,0,0,2.09,4.2,6.35,6.35,0,0,0,4.42,1.58,7.72,7.72,0,0,0,6.45-3l3.51,3.93a10.69,10.69,0,0,1-4.35,3.55A14.27,14.27,0,0,1,352.68,107Zm-.82-22a4.46,4.46,0,0,0-3.45,1.44,7.51,7.51,0,0,0-1.69,4.13h9.94v-.58a5.37,5.37,0,0,0-1.29-3.68A4.59,4.59,0,0,0,351.86,85.06Z"/><path class="cls-2" d="M372.48,79.8l.22,3.09a9.36,9.36,0,0,1,7.69-3.59c2.84,0,4.95.84,6.33,2.5s2.09,4.15,2.13,7.47v17.28H381.7V89.44a4.62,4.62,0,0,0-1-3.3,4.43,4.43,0,0,0-3.28-1,4.94,4.94,0,0,0-4.53,2.57v18.87h-7.14V79.8Z"/><path class="cls-2" d="M411.11,100.59h15.75v6H403.69v-36h7.42Z"/><path class="cls-2" d="M436.53,106.55h-7.15V79.8h7.15ZM434.43,69h7.78l-6.84,7.66h-5.81Z"/><path class="cls-2" d="M447.44,79.8l.22,3.09a9.34,9.34,0,0,1,7.69-3.59c2.83,0,4.94.84,6.33,2.5s2.09,4.15,2.12,7.47v17.28h-7.14V89.44a4.62,4.62,0,0,0-1-3.3,4.45,4.45,0,0,0-3.29-1,4.91,4.91,0,0,0-4.52,2.57v18.87h-7.15V79.8Z"/><path class="cls-2" d="M479.7,107a13.13,13.13,0,0,1-9.58-3.61,12.84,12.84,0,0,1-3.69-9.61v-.7a16.1,16.1,0,0,1,1.56-7.2A11.36,11.36,0,0,1,472.4,81a12.41,12.41,0,0,1,6.51-1.72,11.09,11.09,0,0,1,8.64,3.47q3.15,3.45,3.15,9.81V95.5h-17a6.67,6.67,0,0,0,2.09,4.2,6.32,6.32,0,0,0,4.41,1.58,7.72,7.72,0,0,0,6.45-3l3.51,3.93a10.69,10.69,0,0,1-4.35,3.55A14.23,14.23,0,0,1,479.7,107Zm-.81-22a4.46,4.46,0,0,0-3.45,1.44,7.51,7.51,0,0,0-1.7,4.13h9.94v-.58a5.32,5.32,0,0,0-1.28-3.68A4.62,4.62,0,0,0,478.89,85.06Z"/><path class="cls-2" d="M508.43,106.55a8.11,8.11,0,0,1-.71-2.4A8.64,8.64,0,0,1,501,107a9.51,9.51,0,0,1-6.51-2.27A7.31,7.31,0,0,1,491.87,99,7.55,7.55,0,0,1,495,92.51q3.15-2.28,9.11-2.3h3.29V88.67a4.42,4.42,0,0,0-.95-3,3.76,3.76,0,0,0-3-1.12,4.22,4.22,0,0,0-2.83.87,2.93,2.93,0,0,0-1,2.37h-7.14a7.14,7.14,0,0,1,1.43-4.3,9.46,9.46,0,0,1,4.05-3.1,14.8,14.8,0,0,1,5.89-1.13,11.63,11.63,0,0,1,7.84,2.49,8.67,8.67,0,0,1,2.91,7v11.6a12.92,12.92,0,0,0,1.06,5.76v.42Zm-5.9-5a6.14,6.14,0,0,0,2.91-.71,4.65,4.65,0,0,0,2-1.89v-4.6h-2.67q-5.37,0-5.71,3.71l0,.42a2.84,2.84,0,0,0,.94,2.2A3.62,3.62,0,0,0,502.53,101.58Z"/></g></g></svg>