<svg xmlns="http://www.w3.org/2000/svg" viewBox="0 0 320 56.35"><defs><style>.cls-1{fill:#004f8d;}.cls-2{fill:#ee7203;}</style></defs><g id="Capa_2" data-name="Capa 2"><g id="Capa_1-2" data-name="Capa 1"><path class="cls-1" d="M104.89,37.22H97.26V28.11L98,11.24l-9.26,26H83.59l-9.23-26,.75,16.87v9.11H67.5V1.94h10l8.72,25.17L94.91,1.94h10Z"/><path class="cls-1" d="M130.29,26.48H113.72a6.44,6.44,0,0,0,2,3.89,6,6,0,0,0,4.16,1.44,8.7,8.7,0,0,0,3.51-.71A7.24,7.24,0,0,0,126.18,29L129.69,33a10.72,10.72,0,0,1-4,3.34,13.38,13.38,0,0,1-6.21,1.36,13.87,13.87,0,0,1-7-1.7,11.66,11.66,0,0,1-4.56-4.6A13.27,13.27,0,0,1,106.31,25v-.92a15.89,15.89,0,0,1,1.48-7,11.2,11.2,0,0,1,4.26-4.81,12.18,12.18,0,0,1,6.59-1.73A12,12,0,0,1,125,12.09a10.07,10.07,0,0,1,4,4.47,16,16,0,0,1,1.35,6.82ZM123.12,21A5,5,0,0,0,122,17.64a4.3,4.3,0,0,0-3.36-1.24,4.06,4.06,0,0,0-3.26,1.38,7.56,7.56,0,0,0-1.54,3.81h9.33Z"/><path class="cls-1" d="M154.77,28a8.85,8.85,0,0,1-1.46,5,9.84,9.84,0,0,1-3.94,3.44,12.09,12.09,0,0,1-5.51,1.24A12.27,12.27,0,0,1,137.18,36a10.64,10.64,0,0,1-4.11-4.73,16.33,16.33,0,0,1-1.37-6.83v-.63A16.33,16.33,0,0,1,133.07,17a10.69,10.69,0,0,1,4.09-4.72,12.21,12.21,0,0,1,6.65-1.72,12.59,12.59,0,0,1,5.71,1.24,9.11,9.11,0,0,1,3.86,3.59,10.57,10.57,0,0,1,1.39,5.51h-6.86a4.79,4.79,0,0,0-1.14-3.2,3.92,3.92,0,0,0-3.1-1.26,3.71,3.71,0,0,0-3.66,2,12.26,12.26,0,0,0-1,5.39v.63a12.26,12.26,0,0,0,1,5.43,3.75,3.75,0,0,0,3.72,2,4.37,4.37,0,0,0,3-1A3.6,3.6,0,0,0,147.91,28Z"/><path class="cls-1" d="M178.73,37.22H172.4a8,8,0,0,1-.7-2.36,8.32,8.32,0,0,1-6.56,2.84,9.93,9.93,0,0,1-4.51-1,8,8,0,0,1-3.21-2.81,7.22,7.22,0,0,1-1.18-4,7.44,7.44,0,0,1,3.08-6.39q3.08-2.24,9.06-2.24h3V19.72a4,4,0,0,0-.92-2.82,3.55,3.55,0,0,0-2.76-1,3.92,3.92,0,0,0-2.6.79,2.75,2.75,0,0,0-.94,2.24h-7.31a7.05,7.05,0,0,1,1.39-4.26,9.3,9.3,0,0,1,3.95-3,14.68,14.68,0,0,1,5.9-1.11,13.63,13.63,0,0,1,5.5,1,8.23,8.23,0,0,1,3.75,3.12,9.1,9.1,0,0,1,1.36,5.09v11Zm-9.14-5.76a4.5,4.5,0,0,0,1.77-1.68V25.39h-2.78a5.65,5.65,0,0,0-3.8,1.1,3.67,3.67,0,0,0-1.24,2.88,2.55,2.55,0,0,0,.88,2,3.49,3.49,0,0,0,2.36.77A5.55,5.55,0,0,0,169.59,31.46Z"/><path class="cls-1" d="M204,0V37.22h-6.59l-.36-2.82a8,8,0,0,1-6.64,3.3A9,9,0,0,1,185,36a10.53,10.53,0,0,1-3.52-4.71,18.37,18.37,0,0,1-1.2-6.86v-.51a19,19,0,0,1,1.2-7,10.23,10.23,0,0,1,3.52-4.7,9.13,9.13,0,0,1,5.53-1.67,8,8,0,0,1,6.23,2.83V0Zm-7.31,29.17V19a4.46,4.46,0,0,0-4.36-2.61,3.9,3.9,0,0,0-3.65,2,11.06,11.06,0,0,0-1.15,5.45v.51a10.93,10.93,0,0,0,1.13,5.37,3.84,3.84,0,0,0,3.62,2A4.57,4.57,0,0,0,196.73,29.17Z"/><path class="cls-1" d="M228.67,11V37.22h-6.85l-.2-2.74a8.2,8.2,0,0,1-3,2.38,9.52,9.52,0,0,1-4.09.84,8.54,8.54,0,0,1-6.41-2.37c-1.54-1.59-2.31-4-2.31-7.37V11h7.29V28a3.81,3.81,0,0,0,1,2.86,3.68,3.68,0,0,0,2.65.92c2.25,0,3.8-.79,4.68-2.35V11Z"/><path class="cls-1" d="M231.09,18.7a7.09,7.09,0,0,1,1.27-4.09,8.8,8.8,0,0,1,3.67-3,13.2,13.2,0,0,1,5.6-1.11,14.84,14.84,0,0,1,5.88,1.07,8.82,8.82,0,0,1,3.88,3,7.41,7.41,0,0,1,1.36,4.4h-7.32a3.2,3.2,0,0,0-.94-2.46,4.11,4.11,0,0,0-2.89-.89,4,4,0,0,0-2.55.75,2.36,2.36,0,0,0-1,1.94,2.12,2.12,0,0,0,1.08,1.84,10.67,10.67,0,0,0,3.67,1.19,25.21,25.21,0,0,1,5.26,1.51,8.59,8.59,0,0,1,3.42,2.58,6.67,6.67,0,0,1,1.28,4.2,6.75,6.75,0,0,1-1.37,4.13,9.13,9.13,0,0,1-3.9,2.87,15.47,15.47,0,0,1-5.88,1,13.41,13.41,0,0,1-6.12-1.3,9.82,9.82,0,0,1-3.92-3.33,7.55,7.55,0,0,1-1.35-4.24h6.91a3.37,3.37,0,0,0,1.36,2.8,5.52,5.52,0,0,0,3.29.91,4.89,4.89,0,0,0,2.87-.72,2.23,2.23,0,0,0,1-1.92,1.86,1.86,0,0,0-.45-1.27,4.15,4.15,0,0,0-1.6-1,22.89,22.89,0,0,0-3.26-.92Q231.09,24.74,231.09,18.7Z"/><path class="cls-1" d="M270,31.52V37a12.78,12.78,0,0,1-4.31.68q-7.71,0-7.71-7.85V16.33h-3.71V11H258V4.51h7.32V11h4.41v5.33h-4.41V29a2.89,2.89,0,0,0,.6,2.12,3,3,0,0,0,2.06.57A10.88,10.88,0,0,0,270,31.52Z"/><path class="cls-1" d="M285.84,10.6a6.9,6.9,0,0,1,1,.21l-.1,7.07a18.93,18.93,0,0,0-2.59-.19c-2.62,0-4.32.86-5.12,2.59V37.22h-7.31V11h6.88l.22,3.17a7.13,7.13,0,0,1,2.46-2.71,6.11,6.11,0,0,1,3.35-.94A8.39,8.39,0,0,1,285.84,10.6Z"/><path class="cls-1" d="M295.26,1.51a3.56,3.56,0,0,1,1.12,2.71,3.55,3.55,0,0,1-1.12,2.7,4.18,4.18,0,0,1-3,1,4.14,4.14,0,0,1-2.94-1,3.56,3.56,0,0,1-1.13-2.7,3.57,3.57,0,0,1,1.13-2.71,4.14,4.14,0,0,1,2.94-1A4.18,4.18,0,0,1,295.26,1.51Zm-6.6,35.71V11H296V37.22Z"/><path class="cls-1" d="M320,37.22h-6.32a7.75,7.75,0,0,1-.7-2.36,8.35,8.35,0,0,1-6.57,2.84,9.93,9.93,0,0,1-4.51-1,8.12,8.12,0,0,1-3.21-2.81,7.21,7.21,0,0,1-1.17-4,7.43,7.43,0,0,1,3.07-6.39q3.09-2.24,9.07-2.24h3V19.72a4,4,0,0,0-.92-2.82,3.59,3.59,0,0,0-2.77-1,3.94,3.94,0,0,0-2.6.79,2.78,2.78,0,0,0-.93,2.24H298.1a7.05,7.05,0,0,1,1.39-4.26,9.36,9.36,0,0,1,3.95-3,14.71,14.71,0,0,1,5.9-1.11,13.59,13.59,0,0,1,5.5,1,8.31,8.31,0,0,1,3.76,3.12A9.18,9.18,0,0,1,320,19.77v11Zm-9.13-5.76a4.57,4.57,0,0,0,1.77-1.68V25.39h-2.79a5.6,5.6,0,0,0-3.79,1.1,3.68,3.68,0,0,0-1.25,2.88,2.56,2.56,0,0,0,.89,2,3.46,3.46,0,0,0,2.36.77A5.6,5.6,0,0,0,310.87,31.46Z"/><path class="cls-2" d="M52.06,9.5a.25.25,0,0,1,0,.07l-.62,1.18,4.45,6.57L50,23.23l-6.58-4.46-1.17.63c-.38.2-.76.38-1.15.57h0c-.38.18-.76.34-1.15.5h0l-3.62,3.25-1.07,5.62H30l-2.21,2a29,29,0,0,0,14.6-2.14h-.12a14.14,14.14,0,1,1,0,26h.12a29,29,0,0,0-22.78,0h.1a14.13,14.13,0,0,1-11.12,0,14,14,0,0,1-4.22-2.79L0,56.35H62V2.54l-2.78.53Z"/><path class="cls-2" d="M39.86,20.48c.39-.16.77-.32,1.15-.5C40.63,20.16,40.25,20.32,39.86,20.48Z"/><polygon class="cls-2" points="36.24 23.73 35.16 29.35 36.24 23.73 36.24 23.73"/><polygon class="cls-2" points="59.2 3.07 61.98 2.54 59.2 3.07 59.2 3.07"/><path class="cls-2" d="M41.05,20c.39-.19.77-.37,1.15-.57C41.82,19.6,41.44,19.79,41.05,20Z"/><polygon class="cls-2" points="39.86 20.48 39.86 20.48 39.86 20.48 39.86 20.48"/><path class="cls-2" d="M52.06,9.5h0a.25.25,0,0,1,0,.07A.25.25,0,0,0,52.06,9.5Z"/><path class="cls-2" d="M41.05,20h0Z"/><path class="cls-1" d="M25.32,21.55,24,21.16a24.35,24.35,0,0,1-4.26-1.76l-1.18-.63L12,23.23,6.12,17.32l4.46-6.57L10,9.57A24.35,24.35,0,0,1,8.19,5.31L7.8,4,0,2.54V56.35l4.37-3.93A14.14,14.14,0,0,1,19.71,29.2h-.1a29.07,29.07,0,0,0,8.18,2.14l2.21-2H26.81Z"/><path class="cls-1" d="M59.2,3.07l-5,1-.39,1.28q-.16.54-.36,1.08c-.12.33-.25.66-.38,1l0,.06a22.63,22.63,0,0,1-1,2.06h0Z"/><path class="cls-1" d="M53.43,6.39c-.12.33-.24.66-.38,1C53.18,7.05,53.31,6.72,53.43,6.39Z"/><polygon class="cls-1" points="54.18 4.03 59.2 3.07 59.2 3.07 54.18 4.03"/><path class="cls-1" d="M52.06,9.5a22.63,22.63,0,0,0,1-2.06A22.63,22.63,0,0,1,52.06,9.5Z"/><path class="cls-1" d="M31,13.69A15.36,15.36,0,0,0,46.16.57H15.82A15.36,15.36,0,0,0,31,13.69Z"/><path class="cls-1" d="M37.94,21.16l-1.28.39-.42,2.18,3.62-3.25h0c-.32.13-.63.25-1,.36Z"/><polygon class="cls-1" points="36.24 23.73 36.24 23.73 36.66 21.55 36.24 23.73"/><path class="cls-1" d="M39.86,20.48c-.32.13-.63.25-1,.36C39.23,20.73,39.54,20.61,39.86,20.48Z"/><polygon class="cls-1" points="52.06 9.5 52.06 9.5 52.06 9.5 52.06 9.5"/><polygon class="cls-1" points="39.86 20.48 39.86 20.48 39.86 20.48 39.86 20.48"/><path class="cls-1" d="M53.05,7.38l0,.06Z"/><path class="cls-1" d="M53.79,5.31q-.16.54-.36,1.08Q53.63,5.85,53.79,5.31Z"/><path class="cls-1" d="M38.91,20.84l-1,.32Z"/><path class="cls-2" d="M20.09,42.2a5.86,5.86,0,0,0-.9-3.12l-8.68,7.81a5.94,5.94,0,0,0,9.58-4.69Z"/><path class="cls-2" d="M47.83,36.27a5.94,5.94,0,1,0,5.94,5.93A5.93,5.93,0,0,0,47.83,36.27Z"/><path class="cls-1" d="M14.15,36.27a5.93,5.93,0,0,0-3.64,10.62l8.68-7.81A5.92,5.92,0,0,0,14.15,36.27Z"/><path class="cls-2" d="M113.06,52.72h-4.84l-.85,2.74H103.6L109,40.79h3.33l5.41,14.67h-3.79Zm-4-2.73h3.16l-1.59-5.09Z"/><path class="cls-2" d="M123.59,52.4a.79.79,0,0,0-.46-.7,7.1,7.1,0,0,0-1.72-.54,8.16,8.16,0,0,1-2.09-.74,3.55,3.55,0,0,1-1.26-1.12,2.62,2.62,0,0,1-.43-1.5,3,3,0,0,1,1.24-2.47,5.06,5.06,0,0,1,3.24-1,5.66,5.66,0,0,1,3.46,1,3,3,0,0,1,1.31,2.56h-3.4c0-.87-.46-1.3-1.38-1.3a1.35,1.35,0,0,0-.9.29.93.93,0,0,0-.36.74.85.85,0,0,0,.44.74,4.19,4.19,0,0,0,1.42.46,13.53,13.53,0,0,1,1.7.43,3.11,3.11,0,0,1,2.46,3,2.84,2.84,0,0,1-1.32,2.42,5.79,5.79,0,0,1-3.43.94,6,6,0,0,1-2.5-.5,4.28,4.28,0,0,1-1.71-1.37,3.13,3.13,0,0,1-.62-1.83h3.18a1.32,1.32,0,0,0,.5,1.11,2.07,2.07,0,0,0,1.24.34,1.61,1.61,0,0,0,1-.28A.9.9,0,0,0,123.59,52.4Z"/><path class="cls-2" d="M133,55.66a5.58,5.58,0,0,1-4.06-1.5,5.12,5.12,0,0,1-1.55-3.89V50a6.6,6.6,0,0,1,.62-3,4.55,4.55,0,0,1,1.8-2,5.46,5.46,0,0,1,2.82-.7,4.74,4.74,0,0,1,3.63,1.43,5.56,5.56,0,0,1,1.33,4v1.32h-6.75a2.45,2.45,0,0,0,.8,1.44,2.36,2.36,0,0,0,1.59.52,3,3,0,0,0,2.51-1.13l1.56,1.84a4.49,4.49,0,0,1-1.8,1.39A6,6,0,0,1,133,55.66ZM132.59,47c-1,0-1.58.66-1.77,2h3.42v-.26A1.51,1.51,0,0,0,132.59,47Z"/><path class="cls-2" d="M143.89,52.4a.8.8,0,0,0-.45-.7,7.1,7.1,0,0,0-1.72-.54,8.24,8.24,0,0,1-2.1-.74,3.43,3.43,0,0,1-1.25-1.12,2.62,2.62,0,0,1-.44-1.5,3,3,0,0,1,1.24-2.47,5.1,5.1,0,0,1,3.24-1,5.67,5.67,0,0,1,3.47,1,3,3,0,0,1,1.31,2.56h-3.41c0-.87-.46-1.3-1.38-1.3a1.34,1.34,0,0,0-.89.29.93.93,0,0,0-.36.74.83.83,0,0,0,.44.74,4.12,4.12,0,0,0,1.41.46,13.28,13.28,0,0,1,1.71.43,3.11,3.11,0,0,1,2.46,3,2.83,2.83,0,0,1-1.33,2.42,5.75,5.75,0,0,1-3.43.94,6,6,0,0,1-2.49-.5,4.25,4.25,0,0,1-1.72-1.37,3.19,3.19,0,0,1-.61-1.83h3.17a1.33,1.33,0,0,0,.51,1.11,2.06,2.06,0,0,0,1.23.34,1.63,1.63,0,0,0,1.05-.28A.9.9,0,0,0,143.89,52.4Z"/><path class="cls-2" d="M147.58,49.91a6.36,6.36,0,0,1,.64-2.91,4.47,4.47,0,0,1,1.82-2,5.45,5.45,0,0,1,2.79-.69,5,5,0,0,1,3.86,1.52A5.8,5.8,0,0,1,158.1,50v.12a5.64,5.64,0,0,1-1.42,4,5,5,0,0,1-3.83,1.5,5.09,5.09,0,0,1-3.74-1.4,5.48,5.48,0,0,1-1.52-3.78Zm3.4.21a4,4,0,0,0,.47,2.22,1.58,1.58,0,0,0,1.4.7c1.21,0,1.83-.93,1.85-2.79v-.34c0-2-.62-2.93-1.87-2.93s-1.75.84-1.84,2.53Z"/><path class="cls-2" d="M165.44,47.63l-1.12-.08a2,2,0,0,0-2,1v6.9h-3.39V44.56h3.18l.11,1.4a2.61,2.61,0,0,1,2.38-1.6,3.33,3.33,0,0,1,.95.12Z"/><path class="cls-2" d="M169.62,55.46h-3.41V44.56h3.41Zm-1.27-15.27h3.59l-2.8,3.16h-2.77Z"/><path class="cls-2" d="M177.2,55.46a3.73,3.73,0,0,1-.32-1,3.16,3.16,0,0,1-2.62,1.18,3.87,3.87,0,0,1-2.62-.93,3,3,0,0,1-1.08-2.34,3,3,0,0,1,1.31-2.68,6.62,6.62,0,0,1,3.81-.91h1v-.58q0-1.5-1.29-1.5a1.06,1.06,0,0,0-1.21,1.19h-3.4a3,3,0,0,1,1.35-2.56,5.62,5.62,0,0,1,3.43-1,4.94,4.94,0,0,1,3.29,1,3.53,3.53,0,0,1,1.24,2.79V53a5,5,0,0,0,.46,2.3v.17Zm-2.13-2.22a1.92,1.92,0,0,0,1.06-.27,1.79,1.79,0,0,0,.59-.61V50.61h-1q-1.77,0-1.77,1.59a1,1,0,0,0,.31.75A1.09,1.09,0,0,0,175.07,53.24Z"/><path class="cls-2" d="M189.61,41.85v2.71h1.79v2.36h-1.79v5a1.27,1.27,0,0,0,.22.86,1.2,1.2,0,0,0,.88.24,4.92,4.92,0,0,0,.84-.06v2.43a6.4,6.4,0,0,1-1.91.29,3.56,3.56,0,0,1-2.59-.83,3.35,3.35,0,0,1-.83-2.5V46.92h-1.39V44.56h1.39V41.85Z"/><path class="cls-2" d="M197.27,55.66a5.58,5.58,0,0,1-4.06-1.5,5.12,5.12,0,0,1-1.55-3.89V50a6.6,6.6,0,0,1,.62-3,4.55,4.55,0,0,1,1.8-2,5.46,5.46,0,0,1,2.82-.7,4.74,4.74,0,0,1,3.63,1.43,5.6,5.6,0,0,1,1.33,4v1.32h-6.75a2.45,2.45,0,0,0,.8,1.44,2.36,2.36,0,0,0,1.59.52A3,3,0,0,0,200,51.91l1.56,1.84a4.49,4.49,0,0,1-1.8,1.39A6,6,0,0,1,197.27,55.66ZM196.84,40h3.59l-2.8,3.16h-2.77Zm0,7c-1,0-1.58.66-1.77,2h3.42v-.26A1.51,1.51,0,0,0,196.88,47Z"/><path class="cls-2" d="M207.09,53a1.49,1.49,0,0,0,1.1-.39,1.42,1.42,0,0,0,.39-1.08h3.18a3.77,3.77,0,0,1-1.28,2.94,4.77,4.77,0,0,1-3.31,1.15,4.84,4.84,0,0,1-3.75-1.49A5.9,5.9,0,0,1,202.05,50V49.9a6.63,6.63,0,0,1,.61-2.92A4.42,4.42,0,0,1,204.42,45a5.25,5.25,0,0,1,2.72-.68,4.69,4.69,0,0,1,3.37,1.18,4.18,4.18,0,0,1,1.25,3.19h-3.18a1.85,1.85,0,0,0-.42-1.3,1.41,1.41,0,0,0-1.1-.45c-.88,0-1.4.56-1.54,1.68a11.4,11.4,0,0,0-.07,1.47,4.74,4.74,0,0,0,.39,2.28A1.36,1.36,0,0,0,207.09,53Z"/><path class="cls-2" d="M215.57,44.56l.11,1.28a3.68,3.68,0,0,1,3.11-1.48,3.09,3.09,0,0,1,2.54,1,4.91,4.91,0,0,1,.88,3.06v7H218.8V48.58a1.82,1.82,0,0,0-.33-1.21,1.54,1.54,0,0,0-1.21-.39,1.62,1.62,0,0,0-1.48.78v7.7h-3.39V44.56Z"/><path class="cls-2" d="M223.32,41.75a1.52,1.52,0,0,1,.52-1.19,2.24,2.24,0,0,1,2.72,0,1.62,1.62,0,0,1,0,2.38,2.24,2.24,0,0,1-2.72,0A1.5,1.5,0,0,1,223.32,41.75Zm3.6,13.71h-3.4V44.56h3.4Z"/><path class="cls-2" d="M232.87,53a1.5,1.5,0,0,0,1.11-.39,1.42,1.42,0,0,0,.38-1.08h3.19a3.74,3.74,0,0,1-1.29,2.94A4.75,4.75,0,0,1,233,55.66a4.84,4.84,0,0,1-3.74-1.49A5.9,5.9,0,0,1,227.84,50V49.9a6.63,6.63,0,0,1,.61-2.92A4.37,4.37,0,0,1,230.21,45a5.24,5.24,0,0,1,2.71-.68,4.7,4.7,0,0,1,3.38,1.18,4.18,4.18,0,0,1,1.25,3.19h-3.19a1.85,1.85,0,0,0-.41-1.3,1.42,1.42,0,0,0-1.11-.45c-.87,0-1.39.56-1.54,1.68a13.57,13.57,0,0,0-.07,1.47,4.6,4.6,0,0,0,.4,2.28A1.35,1.35,0,0,0,232.87,53Z"/><path class="cls-2" d="M244.38,55.46a3.73,3.73,0,0,1-.32-1,3.16,3.16,0,0,1-2.62,1.18,3.87,3.87,0,0,1-2.62-.93,3,3,0,0,1-1.08-2.34,3,3,0,0,1,1.31-2.68,6.62,6.62,0,0,1,3.81-.91h1v-.58q0-1.5-1.29-1.5a1.06,1.06,0,0,0-1.21,1.19H238a3,3,0,0,1,1.35-2.56,5.62,5.62,0,0,1,3.43-1,4.94,4.94,0,0,1,3.29,1,3.53,3.53,0,0,1,1.24,2.79V53a5,5,0,0,0,.46,2.3v.17Zm-2.13-2.22a1.92,1.92,0,0,0,1.06-.27,1.79,1.79,0,0,0,.59-.61V50.61h-1q-1.77,0-1.77,1.59a1,1,0,0,0,.31.75A1.09,1.09,0,0,0,242.25,53.24Z"/><path class="cls-2" d="M258.11,55.66a5.59,5.59,0,0,1-4.06-1.5,5.16,5.16,0,0,1-1.55-3.89V50a6.73,6.73,0,0,1,.62-3,4.51,4.51,0,0,1,1.81-2,5.41,5.41,0,0,1,2.82-.7,4.71,4.71,0,0,1,3.62,1.43,5.56,5.56,0,0,1,1.33,4v1.32H256a2.45,2.45,0,0,0,.8,1.44,2.36,2.36,0,0,0,1.59.52,3.07,3.07,0,0,0,2.52-1.13l1.55,1.84a4.35,4.35,0,0,1-1.8,1.39A6,6,0,0,1,258.11,55.66ZM257.73,47c-1,0-1.59.66-1.78,2h3.43v-.26a1.69,1.69,0,0,0-.42-1.26A1.62,1.62,0,0,0,257.73,47Z"/><path class="cls-2" d="M266.44,44.56l.11,1.28a3.68,3.68,0,0,1,3.11-1.48,3.09,3.09,0,0,1,2.54,1,4.79,4.79,0,0,1,.88,3.06v7h-3.41V48.58a1.82,1.82,0,0,0-.33-1.21,1.53,1.53,0,0,0-1.21-.39,1.62,1.62,0,0,0-1.48.78v7.7h-3.39V44.56Z"/><path class="cls-2" d="M282.18,55.46h-3.4V40h3.4Z"/><path class="cls-2" d="M287.23,55.46h-3.41V44.56h3.41ZM286,40.19h3.59l-2.8,3.16H284Z"/><path class="cls-2" d="M291.79,44.56l.11,1.28A3.68,3.68,0,0,1,295,44.36a3.1,3.1,0,0,1,2.54,1,4.85,4.85,0,0,1,.87,3.06v7H295V48.58a1.82,1.82,0,0,0-.33-1.21,1.54,1.54,0,0,0-1.21-.39,1.61,1.61,0,0,0-1.48.78v7.7h-3.4V44.56Z"/><path class="cls-2" d="M304.83,55.66a5.61,5.61,0,0,1-4.06-1.5,5.16,5.16,0,0,1-1.55-3.89V50a6.73,6.73,0,0,1,.62-3,4.57,4.57,0,0,1,1.81-2,5.41,5.41,0,0,1,2.82-.7,4.7,4.7,0,0,1,3.62,1.43,5.56,5.56,0,0,1,1.33,4v1.32h-6.74a2.44,2.44,0,0,0,.79,1.44,2.36,2.36,0,0,0,1.59.52,3,3,0,0,0,2.52-1.13l1.55,1.84a4.35,4.35,0,0,1-1.8,1.39A6,6,0,0,1,304.83,55.66ZM304.45,47c-1,0-1.59.66-1.77,2h3.42v-.26a1.69,1.69,0,0,0-.41-1.26A1.66,1.66,0,0,0,304.45,47Z"/><path class="cls-2" d="M316.18,55.46a3.73,3.73,0,0,1-.32-1,3.14,3.14,0,0,1-2.62,1.18,3.87,3.87,0,0,1-2.62-.93,3,3,0,0,1-1.07-2.34,3,3,0,0,1,1.31-2.68,6.6,6.6,0,0,1,3.8-.91h1v-.58c0-1-.43-1.5-1.3-1.5a1.06,1.06,0,0,0-1.21,1.19h-3.39a3,3,0,0,1,1.34-2.56,5.64,5.64,0,0,1,3.43-1,4.92,4.92,0,0,1,3.29,1,3.53,3.53,0,0,1,1.24,2.79V53a5,5,0,0,0,.47,2.3v.17Zm-2.12-2.22a1.91,1.91,0,0,0,1.05-.27,1.73,1.73,0,0,0,.6-.61V50.61h-1q-1.77,0-1.77,1.59a1,1,0,0,0,.31.75A1.11,1.11,0,0,0,314.06,53.24Z"/></g></g></svg>